<svg xmlns="http://www.w3.org/2000/svg" width="37.969" height="89.94" viewBox="0 0 37.969 89.94">
  <metadata><?xpacket begin="﻿" id="W5M0MpCehiHzreSzNTczkc9d"?>
<x:xmpmeta xmlns:x="adobe:ns:meta/" x:xmptk="Adobe XMP Core 5.6-c138 79.159824, 2016/09/14-01:09:01        ">
   <rdf:RDF xmlns:rdf="http://www.w3.org/1999/02/22-rdf-syntax-ns#">
      <rdf:Description rdf:about=""/>
   </rdf:RDF>
</x:xmpmeta>                                                                                                
                           
<?xpacket end="w"?></metadata>
<defs>
    <style>
      .cls-1 {
        fill: #303031;
        fill-rule: evenodd;
      }
    </style>
  </defs>
  <path class="cls-1" d="M335.487,4031.44c-2.184,3.51-1.986,8.97.994,14.05a18.234,18.234,0,0,0,6.753,6.63,9.086,9.086,0,0,0,7.349.78v10.73a2.391,2.391,0,0,0,2.384,2.34,2.54,2.54,0,0,0,2.383-2.34V4052.9a10.47,10.47,0,0,0,2.582.39,10.736,10.736,0,0,0,4.767-1.17,16.9,16.9,0,0,0,6.754-6.63c2.979-5.08,3.178-10.74.993-14.05,1.986-4.49,1.986-9.17,0-12.1,2.383-5.07,1.986-10.34-.8-13.27v-20.68a2.391,2.391,0,0,0-2.383-2.34,2.54,2.54,0,0,0-2.384,2.34v18.54a8.51,8.51,0,0,0-2.185.19c-0.4-5.85-3.178-10.34-7.15-11.71v-14.04a2.391,2.391,0,0,0-2.384-2.34,2.539,2.539,0,0,0-2.383,2.34v14.04c-3.973,1.37-6.754,6.05-7.151,11.71a8.5,8.5,0,0,0-2.185-.19v-18.54a2.39,2.39,0,0,0-2.383-2.34,2.54,2.54,0,0,0-2.384,2.34v20.88c-2.781,2.92-3.178,8-.794,13.27C333.5,4022.27,333.5,4026.95,335.487,4031.44Zm30.39-10.15c1.589,0.78,1.987,3.9.8,7.22a9.411,9.411,0,0,0-6.753.98,13.615,13.615,0,0,0-4.172,3.31v-1.95a13.713,13.713,0,0,1,6.356-9.17A3.868,3.868,0,0,1,365.877,4021.29Zm-15.1,11.32a16.291,16.291,0,0,0-4.171-3.32,9.48,9.48,0,0,0-6.754-.97c-1.191-3.52-.6-6.44.795-7.22,0.993-.59,2.185-0.39,3.774.39a13.659,13.659,0,0,1,6.356,9.17v1.95Zm-1.391,15.8c-0.794.59-2.185,0.39-3.774-.39a12.616,12.616,0,0,1-4.767-4.88c-2.582-4.48-2.184-8.78-.4-9.75a2.79,2.79,0,0,1,1.192-.39,5.358,5.358,0,0,1,2.383.58,13.713,13.713,0,0,1,6.356,9.17v3.32A2.211,2.211,0,0,1,349.391,4048.41Zm16.089-5.27a12.61,12.61,0,0,1-4.767,4.88,4.443,4.443,0,0,1-3.774.39,3.181,3.181,0,0,1-1.39-2.14v-3.32a12.477,12.477,0,0,1,1.589-4.29,12.61,12.61,0,0,1,4.767-4.88,3.842,3.842,0,0,1,3.774-.39C367.665,4034.36,368.062,4038.66,365.48,4043.14Zm0.4-34.14c1.589,0.78,1.987,3.9.8,7.22a9.353,9.353,0,0,0-6.753.97,13.5,13.5,0,0,0-4.172,3.32v-1.95a13.713,13.713,0,0,1,6.356-9.17A4.444,4.444,0,0,1,365.877,4009Zm-12.712-12.29c2.185,0,4.767,3.51,4.767,8.58v0.98a16.939,16.939,0,0,0-4.568,5.27,19.965,19.965,0,0,0-4.569-5.27v-0.98C348.4,4000.41,350.98,3996.71,353.165,3996.71Zm-8.938,12.68a13.713,13.713,0,0,1,6.356,9.17v1.95a16.291,16.291,0,0,0-4.171-3.32,9.478,9.478,0,0,0-6.753-.97c-1.192-3.51-.6-6.44.794-7.22A4.443,4.443,0,0,1,344.227,4009.39Z" transform="translate(-334.031 -3976.03)"/>
</svg>
